# xmcd
#
# Track frame offsets:
#	150
#	15898
#	29808
#	44998
#	60875
#	76368
#	91953
#	108025
#	120815
#	136033
#
# Disc length: 1980 seconds
#
# Revision: 2
# Processed by: cddbd v1.4PL0 Copyright (c) Steve Scherf et al.
# Submitted via: audiograbber 1.80
#
DISCID=6d07ba0a
DTITLE=Toby Keith - Toby Keith
DYEAR=1900
DGENRE=
TTITLE0=Should've Been A Cowboy
TTITLE1=He Ain't Worth Missing
TTITLE2=Under The Fall
TTITLE3=Some Kinda Good Kinda Hold On Me
TTITLE4=Whsh I Didn't Know Now
TTITLE5=Ain't No Thang
TTITLE6=Valentine
TTITLE7=A Little Less Talk And A Lot More Action
TTITLE8=Mama Come Quick
TTITLE9=Close But No Guitar
EXTD=
EXTT0=
EXTT1=
EXTT2=
EXTT3=
EXTT4=
EXTT5=
EXTT6=
EXTT7=
EXTT8=
EXTT9=
PLAYORDER=
